<?xml version="1.0" encoding="UTF-8" standalone="no"?>
<!-- Created with Inkscape (http://www.inkscape.org/) -->

<svg
   width="297mm"
   height="210mm"
   viewBox="0 0 297 210"
   version="1.1"
   id="svg2970"
   inkscape:version="1.2.1 (9c6d41e410, 2022-07-14)"
   sodipodi:docname="opening.svg"
   xmlns:inkscape="http://www.inkscape.org/namespaces/inkscape"
   xmlns:sodipodi="http://sodipodi.sourceforge.net/DTD/sodipodi-0.dtd"
   xmlns="http://www.w3.org/2000/svg"
   xmlns:svg="http://www.w3.org/2000/svg">
  <sodipodi:namedview
     id="namedview2972"
     pagecolor="#ffffff"
     bordercolor="#000000"
     borderopacity="0.25"
     inkscape:showpageshadow="2"
     inkscape:pageopacity="0.0"
     inkscape:pagecheckerboard="0"
     inkscape:deskcolor="#d1d1d1"
     inkscape:document-units="mm"
     showgrid="false"
     inkscape:zoom="0.95753968"
     inkscape:cx="560.81227"
     inkscape:cy="396.85039"
     inkscape:window-width="1920"
     inkscape:window-height="1011"
     inkscape:window-x="0"
     inkscape:window-y="0"
     inkscape:window-maximized="1"
     inkscape:current-layer="layer1" />
  <defs
     id="defs2967" />
  <g
     inkscape:label="Layer 1"
     inkscape:groupmode="layer"
     id="layer1">
    <g
       id="g3436"
       transform="translate(-44.092106,3.8684205)">
      <path
         id="Triangle_1"
         data-name="Triangle 1"
         class="cls-1"
         d="M 162.27813,134.85541 98.578373,24.524166 H 225.97789 Z"
         style="fill:#005a9c;fill-rule:evenodd;stroke-width:0.264583" />
      <path
         id="Triangle_2"
         data-name="Triangle 2"
         class="cls-2"
         d="m 226.04271,24.524166 -31.88229,55.033333 h 63.76459 z"
         style="fill:#0066b0;fill-rule:evenodd;stroke-width:0.264583" />
      <path
         id="Triangle_3"
         data-name="Triangle 3"
         class="cls-3"
         d="M 226.04271,134.59083 194.16042,79.557499 h 63.76459 z"
         style="fill:#0076cc;fill-rule:evenodd;stroke-width:0.264583" />
      <path
         id="Triangle_4"
         data-name="Triangle 4"
         class="cls-4"
         d="M 257.79271,79.822082 241.78542,52.305416 h 32.01459 z"
         style="fill:#0086e8;fill-rule:evenodd;stroke-width:0.264583" />
      <path
         id="Triangle_5"
         data-name="Triangle 5"
         class="cls-5"
         d="m 257.79271,24.78875 -16.00729,27.516666 h 32.01459 z"
         style="fill:#0093ff;fill-rule:evenodd;stroke-width:0.264583" />
      <path
         id="WebGPU"
         class="cls-6"
         d="m 136.64715,146.35659 -6.79979,26.17867 -7.11121,-26.17867 h -4.53416 l -7.46681,26.26757 -6.75587,-26.26757 h -4.311119 l 8.666959,31.02319 4.48892,-0.0445 7.4668,-24.93407 7.20038,24.93407 h 4.53337 l 8.9781,-30.97874 z m 31.02293,17.86757 a 12.268994,12.268994 0 0 0 -1.44436,-5.97799 10.470092,10.470092 0 0 0 -4.11136,-4.15555 12.227189,12.227189 0 0 0 -6.13331,-1.51103 12.635442,12.635442 0 0 0 -6.28915,1.53458 10.607939,10.607939 0 0 0 -4.24471,4.37806 q -1.5113,2.8448 -1.51103,6.62226 2.6e-4,3.77745 1.55548,6.64474 a 11.006667,11.006667 0 0 0 4.28916,4.42225 12.304712,12.304712 0 0 0 6.20025,1.55575 q 4.35531,0 7.28901,-2.20001 a 10.472473,10.472473 0 0 0 3.91133,-5.7113 h -4.35583 a 6.4714437,6.4714437 0 0 1 -2.46672,3.26681 q -1.75603,1.22264 -4.37779,1.22211 a 7.8430437,7.8430437 0 0 1 -5.44486,-2.02221 q -2.24473,-2.02221 -2.46671,-5.62239 h 19.46751 a 23.865416,23.865416 0 0 0 0.13229,-2.44449 v 0 z m -4.17777,-0.84455 h -15.37838 q 0.31062,-3.46604 2.46671,-5.42237 a 7.4967041,7.4967041 0 0 1 5.22261,-1.95553 8.6643103,8.6643103 0 0 1 3.88937,0.86651 6.6518895,6.6518895 0 0 1 2.77813,2.53338 7.4641603,7.4641603 0 0 1 1.02235,3.97801 v 0 z m 13.55566,-5.86687 V 144.4455 h -4.04442 v 32.88983 h 4.04442 v -4.48892 a 9.3662499,9.3662499 0 0 0 3.57796,3.51102 10.8331,10.8331 0 0 0 5.53349,1.37795 11.080221,11.080221 0 0 0 10.04491,-6.08912 13.983229,13.983229 0 0 0 1.51104,-6.57807 q 0,-3.73354 -1.51104,-6.55559 a 11.021483,11.021483 0 0 0 -4.13411,-4.37806 11.367294,11.367294 0 0 0 -5.91133,-1.55548 10.786798,10.786798 0 0 0 -5.46682,1.37768 9.5654811,9.5654811 0 0 0 -3.64463,3.55574 v 0 z m 16.53407,7.55571 a 10.136717,10.136717 0 0 1 -1.11125,4.86701 7.8152624,7.8152624 0 0 1 -3.00011,3.15569 8.1705978,8.1705978 0 0 1 -4.15581,1.08876 8.0840791,8.0840791 0 0 1 -4.11109,-1.08876 7.9589311,7.9589311 0 0 1 -3.02234,-3.15569 10.730706,10.730706 0 0 1 0,-9.60041 7.9639582,7.9639582 0 0 1 3.02234,-3.15568 8.0893707,8.0893707 0 0 1 4.11109,-1.08876 8.3057999,8.3057999 0 0 1 4.15581,1.06653 7.6993749,7.6993749 0 0 1 3.00011,3.11124 9.9083811,9.9083811 0 0 1 1.11125,4.80007 z m 37.7788,-9.73429 a 13.989314,13.989314 0 0 0 -5.5335,-6.88922 q -3.80021,-2.44369 -8.73336,-2.44448 a 15.636875,15.636875 0 0 0 -7.86712,2.02221 14.807671,14.807671 0 0 0 -5.6224,5.64462 17.082823,17.082823 0 0 0 0,16.2896 14.844977,14.844977 0 0 0 5.6224,5.6224 15.628408,15.628408 0 0 0 7.86712,2.02221 15.069608,15.069608 0 0 0 7.42235,-1.84441 14.826985,14.826985 0 0 0 5.37792,-5.02259 15.384462,15.384462 0 0 0 2.40004,-7.00008 v -3.11071 h -16.66743 v 3.28904 h 12.35604 q -0.48974,4.62412 -3.42185,7.33346 -2.93211,2.70933 -7.46681,2.71118 a 11.545623,11.545623 0 0 1 -5.84491,-1.48881 10.548144,10.548144 0 0 1 -4.08887,-4.24471 q -1.48934,-2.75511 -1.48881,-6.40001 5.3e-4,-3.6449 1.48881,-6.42249 a 10.523802,10.523802 0 0 1 4.08887,-4.26694 11.550914,11.550914 0 0 1 5.84491,-1.48881 10.720652,10.720652 0 0 1 5.68854,1.48881 9.641152,9.641152 0 0 1 3.73327,4.19973 z m 26.97877,0.0889 q 0,-4.00023 -2.73341,-6.53362 -2.73341,-2.53338 -7.97798,-2.53338 h -10.00125 v 30.97927 h 4.04468 V 164.4017 h 5.95577 q 5.42211,0 8.06688,-2.55561 2.64478,-2.55561 2.64584,-6.4225 v 0 z m -10.71139,5.64463 h -5.95577 V 149.6906 h 5.95577 q 6.57701,0 6.5778,5.73352 0,2.71145 -1.59993,4.17777 -1.59994,1.46632 -4.97787,1.46685 v 0 z m 15.64454,-14.71084 V 165.913 q 0,3.86689 1.53459,6.5114 a 9.6263353,9.6263353 0 0 0 4.17777,3.93329 14.300729,14.300729 0 0 0 11.86709,0 9.7665645,9.7665645 0 0 0 4.20026,-3.93329 q 1.55337,-2.64399 1.55337,-6.51166 v -19.55615 h -4.04363 v 19.6006 q 0,4.13358 -2.02247,6.13357 -2.02248,1.99998 -5.57795,1.99998 -3.59992,0 -5.62239,-1.99998 -2.02248,-1.99999 -2.02169,-6.13357 v -19.6006 h -4.04521 z"
         style="fill-rule:evenodd;stroke-width:0.264583" />
    </g>
  </g>
</svg>
